# xmcd
#
# Track frame offsets: 
#        150
#        17987
#        42094
#        64034
#        83608
#        114905
#        139238
#        155631
#        177934
#        205064
#        225525
#        256581
#        282108
#        304542
#
# Disc length: 4388 seconds
#
# Revision: 1
# Processed by: cddbd v1.5.2PL0 Copyright (c) Steve Scherf et al.
# Submitted via: ExactAudioCopy v0.99pb5
#
DISCID=ad11220e
DTITLE=Samantha Fish Blues Band - Live Bait
DYEAR=2009
DGENRE=Blues
TTITLE0=See You No More
TTITLE1=Leavin It All At Home
TTITLE2=Breakin Up Somebodys Home
TTITLE3=Darker Side Of Love
TTITLE4=I Put A Spell On You
TTITLE5=Monkey See Monkey Do
TTITLE6=Stick With Me Baby
TTITLE7=Fool For You
TTITLE8=Rollin and Tumblin
TTITLE9=Shotgun
TTITLE10=Something On Your Mind
TTITLE11=I'm Burning
TTITLE12=One Kiss At A Time
TTITLE13=When The Money Runs Out
EXTD=
EXTT0=
EXTT1=
EXTT2=
EXTT3=
EXTT4=
EXTT5=
EXTT6=
EXTT7=
EXTT8=
EXTT9=
EXTT10=
EXTT11=
EXTT12=
EXTT13=
PLAYORDER=
